<svg width="12" height="20" viewBox="0 0 12 20" fill="none" xmlns="http://www.w3.org/2000/svg">
<path d="M11.0553 0.391409C10.9315 0.267338 10.7845 0.168901 10.6226 0.101737C10.4608 0.0345722 10.2872 0 10.112 0C9.93675 0 9.76323 0.0345722 9.60137 0.101737C9.43951 0.168901 9.29249 0.267338 9.16874 0.391409L0.311696 9.24845C0.212889 9.34705 0.1345 9.46418 0.0810154 9.59311C0.0275306 9.72205 0 9.86027 0 9.99986C0 10.1394 0.0275306 10.2777 0.0810154 10.4066C0.1345 10.5355 0.212889 10.6527 0.311696 10.7513L9.16874 19.6083C9.69099 20.1306 10.533 20.1306 11.0553 19.6083C11.5775 19.0861 11.5775 18.244 11.0553 17.7218L3.33865 9.99453L11.0659 2.26727C11.5775 1.75567 11.5775 0.903007 11.0553 0.391409Z" fill="#206F79"/>
</svg>
